<?xml version="1.0" encoding="UTF-8"?>
<svg version="1.1" xmlns="http://www.w3.org/2000/svg" width="512" height="512">
<path d="M0 0 C0.72915115 -0.0065712 1.45830231 -0.0131424 2.20954895 -0.01991272 C4.61129883 -0.03954744 7.01298651 -0.05128543 9.41479492 -0.0612793 C10.23869909 -0.06535482 11.06260326 -0.06943035 11.91147423 -0.07362938 C16.27138387 -0.09444689 20.63126243 -0.10876798 24.99121094 -0.11816406 C29.48011923 -0.12922774 33.96853177 -0.16363932 38.4572649 -0.20333576 C41.92238756 -0.22954802 45.38739275 -0.2378599 48.85260582 -0.24144554 C50.50672446 -0.24629851 52.1608383 -0.25787554 53.81485939 -0.27648354 C71.10014225 -0.45888257 71.10014225 -0.45888257 78.60620117 5.88793945 C82.59625248 10.80054597 84.58276367 14.6827541 84.58276367 21.17700195 C85.21182617 21.24016602 85.84088867 21.30333008 86.48901367 21.3684082 C93.4273358 22.36108983 98.18324466 24.59885891 102.58276367 30.17700195 C105.22547256 35.38090123 106.0188796 39.64273299 105.97094727 45.49560547 C105.9788327 46.69700165 105.9788327 46.69700165 105.98687744 47.92266846 C106.00000169 50.55061776 105.99136734 53.17795354 105.98120117 55.8059082 C105.98322389 57.64241145 105.98613698 59.47891392 105.98989868 61.31541443 C105.9943116 65.15599244 105.98792356 68.99636053 105.97387695 72.83691406 C105.9567736 77.75188915 105.96664006 82.66637315 105.98459435 87.5813303 C105.99544981 91.37065818 105.99197796 95.15987016 105.98421097 98.94920158 C105.98221446 100.7612406 105.98464888 102.57329025 105.99164963 104.38531685 C105.99929454 106.91975806 105.98761831 109.45341031 105.97094727 111.98779297 C105.97701996 112.7313353 105.98309265 113.47487762 105.98934937 114.24095154 C105.92372979 119.64370792 104.7276119 123.70984046 101.15307617 127.8215332 C97.94171933 130.41665671 95.61248892 131.54180797 91.58276367 132.17700195 C91.44741211 133.02520508 91.31206055 133.8734082 91.17260742 134.74731445 C88.14859327 151.22547543 80.87972656 163.32911497 68.22338867 174.2043457 C66.34928413 176.058274 66.34928413 176.058274 66.45385742 178.5793457 C67.70073642 184.16020411 68.82304212 187.60721079 73.58276367 191.17700195 C78.83746026 194.27279219 84.12224168 195.29574634 90.02026367 196.48950195 C108.5891669 200.50116961 123.97115029 207.88218493 138.58276367 220.17700195 C139.59338867 220.94012695 140.60401367 221.70325195 141.64526367 222.48950195 C151.59822599 231.59540365 158.79284959 243.07060409 164.52026367 255.17700195 C164.82722168 255.82443359 165.13417969 256.47186523 165.45043945 257.13891602 C166.76172442 260.00333678 167.58276367 261.98879756 167.58276367 265.17700195 C169.34620117 265.48637695 169.34620117 265.48637695 171.14526367 265.80200195 C175.92899062 267.02337905 179.57213766 269.22888987 182.58276367 273.17700195 C186.32522498 280.50598869 185.92929006 287.58964226 185.77026367 295.67700195 C185.70838867 300.13200195 185.64651367 304.58700195 185.58276367 309.17700195 C197.13276367 309.17700195 208.68276367 309.17700195 220.58276367 309.17700195 C220.58276367 305.87700195 220.58276367 302.57700195 220.58276367 299.17700195 C222.5558201 292.30312794 226.61404088 287.04514419 232.58276367 283.17700195 C239.32304885 279.68649713 245.89611618 279.10237768 253.39135742 278.8605957 C254.63208008 278.81870117 255.87280273 278.77680664 257.15112305 278.73364258 C258.42793945 278.69432617 259.70475586 278.65500977 261.02026367 278.61450195 C262.32415039 278.57131836 263.62803711 278.52813477 264.97143555 278.48364258 C268.17511683 278.37802671 271.37886978 278.27592094 274.58276367 278.17700195 C274.81111908 277.52285812 275.03947449 276.86871429 275.27474976 276.19474792 C277.47652671 269.8890456 279.68083283 263.58423199 281.88767052 257.28029919 C283.02088956 254.04294781 284.15327941 250.80531248 285.28344727 247.56689453 C291.52343479 229.69403641 297.93924188 211.90347651 304.58276367 194.17700195 C303.95337891 193.8830957 303.32399414 193.58918945 302.67553711 193.28637695 C299.26305919 191.47742926 298.1741053 188.86972466 296.50463867 185.48168945 C295.50513268 181.89871457 295.61608314 179.30449501 295.90258789 175.64746094 C296.63285606 167.59500011 296.63285606 167.59500011 293.05932617 160.6652832 C290.32929344 158.00407134 287.35341908 155.69200773 284.27954102 153.44262695 C281.88111492 151.65364265 279.71364279 149.6468663 277.52026367 147.61450195 C276.7287793 146.90551758 275.93729492 146.1965332 275.12182617 145.46606445 C272.19451478 142.82698065 269.29472964 140.15908008 266.39526367 137.48950195 C262.19789895 133.62763294 257.94836999 129.84807999 253.58276367 126.17700195 C250.03757483 127.574601 250.03757483 127.574601 246.58276367 129.17700195 C245.92845708 131.42841144 245.36046738 133.70510037 244.83276367 135.98950195 C240.94426459 151.53423993 232.94802149 164.10970049 219.58276367 173.17700195 C217.19238161 174.37219299 215.50034971 174.44691523 212.83276367 174.55200195 C211.99229492 174.60098633 211.15182617 174.6499707 210.28588867 174.70043945 C206.38619287 173.94529605 204.1123811 172.11109931 201.58276367 169.17700195 C199.31483468 165.67622705 197.42125482 162.0120008 195.52026367 158.30200195 C194.37511191 156.12647747 193.22792447 153.9520235 192.07885742 151.77856445 C191.49861816 150.67544922 190.91837891 149.57233398 190.32055664 148.43579102 C187.6683981 143.4623417 184.87978906 138.56999171 182.08276367 133.67700195 C176.94803981 124.66184386 171.97667325 115.56705477 167.06225586 106.43017578 C163.75171741 100.28911674 160.36157017 94.22408499 156.75463867 88.2512207 C154.37448244 84.03834418 153.97112732 79.91718365 154.58276367 75.17700195 C156.89725942 69.94422895 159.9108219 68.14270035 164.97338867 66.03637695 C172.05725554 63.70336691 178.33522137 62.78911509 185.77026367 62.80200195 C187.1530249 62.8033313 187.1530249 62.8033313 188.5637207 62.8046875 C197.3776215 62.95670452 205.16934334 64.49799711 212.81323242 69.13793945 C217.07418355 70.3124607 217.62098757 70.07181179 221.36010742 68.1340332 C223.09568968 67.11177658 224.81555757 66.06245651 226.52026367 64.98950195 C235.50452334 59.51228562 244.04178774 55.18362256 254.87573242 57.7121582 C264.20066971 60.57055606 270.54055377 65.70244241 275.25854492 74.19262695 C279.99741939 83.55727626 282.28684164 91.40553811 279.96948242 101.97387695 C277.67463157 108.48437892 273.73801984 112.6974347 268.58276367 117.17700195 C269.00944336 117.5430957 269.43612305 117.90918945 269.87573242 118.28637695 C274.3572044 122.16723928 278.73672828 126.14614185 283.08276367 130.17700195 C287.20127888 133.99555119 291.34651486 137.76772568 295.59448242 141.44262695 C299.63672845 144.9686726 303.60312122 148.58064474 307.58276367 152.17700195 C308.30850586 151.8624707 309.03424805 151.54793945 309.78198242 151.22387695 C316.54573905 148.69572245 323.88098305 148.34765099 330.58276367 151.17700195 C338.19819456 155.08728212 342.86557846 160.0254463 345.58276367 168.17700195 C346.39740261 177.12639253 346.19231315 184.84143725 340.58276367 192.17700195 C335.54993344 197.04748282 330.36147474 200.25232622 323.27026367 200.30200195 C322.05338867 200.26075195 320.83651367 200.21950195 319.58276367 200.17700195 C319.4069426 200.85337204 319.23112152 201.52974213 319.04997253 202.22660828 C317.32963764 208.70636202 315.34337855 215.01620956 313.07104492 221.3215332 C312.73912643 222.25261398 312.40720795 223.18369476 312.06523132 224.14299011 C311.01239093 227.09320739 309.9538787 230.04135256 308.89526367 232.98950195 C308.20544963 234.92101372 307.5159943 236.85265363 306.8269043 238.78442383 C302.13057317 251.93406785 297.36783173 265.05942196 292.58276367 278.17700195 C294.23405273 278.64082275 294.23405273 278.64082275 295.91870117 279.11401367 C304.57313895 281.62476941 311.69855837 285.37584071 316.58276367 293.17700195 C318.91418926 298.56426037 319.72719141 303.31493488 319.58276367 309.17700195 C320.50057617 309.11899414 321.41838867 309.06098633 322.36401367 309.0012207 C329.05698067 308.75515574 334.27322639 308.59570654 339.93432617 312.3996582 C346.31529567 319.27961347 346.20990381 325.97511904 346.10424805 334.99243164 C346.08281017 337.17227432 346.10409866 339.34882258 346.12963867 341.52856445 C346.15574381 354.48804685 346.15574381 354.48804685 341.58276367 360.17700195 C337.31210401 364.13517432 334.23130975 365.3079184 328.47729492 365.2746582 C327.49438477 365.27143555 326.51147461 365.26821289 325.4987793 365.26489258 C323.96253906 365.25232422 323.96253906 365.25232422 322.39526367 365.23950195 C320.84162109 365.23273438 320.84162109 365.23273438 319.2565918 365.22583008 C316.69859101 365.21404206 314.14070634 365.19758711 311.58276367 365.17700195 C311.60371094 365.73162109 311.6246582 366.28624023 311.64624023 366.85766602 C311.72959915 369.38059218 311.78148235 371.90322844 311.83276367 374.42700195 C311.8662793 375.29969727 311.89979492 376.17239258 311.93432617 377.0715332 C312.03299534 383.53436359 312.03299534 383.53436359 309.75463867 386.78637695 C307.58276367 388.17700195 307.58276367 388.17700195 304.58276367 388.17700195 C304.60555768 391.28279689 304.68284186 394.38490679 304.77026367 397.48950195 C304.77606445 398.37057617 304.78186523 399.25165039 304.7878418 400.15942383 C304.87131141 402.59859152 304.99364988 404.80737902 305.58276367 407.17700195 C307.93341838 409.23947203 307.93341838 409.23947203 310.58276367 410.17700195 C312.09488023 413.20123507 311.73882571 416.33465986 311.74389648 419.65258789 C311.74886139 420.42352783 311.75382629 421.19446777 311.75894165 421.98876953 C311.77357887 424.54631435 311.78036876 427.10379708 311.78588867 429.66137695 C311.79163999 431.43776451 311.79739772 433.21415204 311.80316162 434.99053955 C311.81367683 438.71968882 311.81951571 442.4488165 311.82299805 446.17797852 C311.82847599 450.95068556 311.85248677 455.72310633 311.88097 460.49572372 C311.89962018 464.1675092 311.9048033 467.83922616 311.90633392 471.51105499 C311.90935692 473.27007864 311.91737354 475.02910118 311.9305191 476.78807831 C311.9476253 479.25355075 311.94568809 481.71832974 311.93920898 484.18383789 C311.94842377 484.90718323 311.95763855 485.63052856 311.96713257 486.37579346 C311.92322733 491.72476911 310.74343362 495.86239114 307.04760742 499.8215332 C302.10550932 503.60078469 299.98568581 504.30251367 293.76289749 504.31122303 C292.69339178 504.31475138 292.69339178 504.31475138 291.6022799 504.318351 C289.18879741 504.32506176 286.7753685 504.32458216 284.36187744 504.32417297 C282.62376089 504.32747031 280.88564511 504.3311956 279.14753032 504.33531445 C274.3521674 504.3453574 269.556817 504.34905492 264.76144505 504.35170376 C259.59703092 504.35560002 254.43262677 504.36517879 249.26821899 504.37391663 C236.78690031 504.39370004 224.30558079 504.40374952 211.82425034 504.41264442 C205.95144416 504.41702415 200.07863889 504.42239176 194.20583344 504.42763329 C174.6917146 504.44464726 155.17759634 504.45914251 135.66347122 504.46638203 C130.59685516 504.46829203 125.5302391 504.47021234 120.46362305 504.47216797 C119.20428848 504.47265171 117.94495391 504.47313545 116.64745769 504.47363385 C96.23678618 504.48193813 75.82617319 504.50728103 55.41552725 504.53974865 C34.476304 504.57278645 13.53711052 504.59082781 -7.40213895 504.59402627 C-19.16523189 504.59619438 -30.92823947 504.60498705 -42.69130707 504.63048744 C-52.70720193 504.65214966 -62.72299072 504.66026697 -72.73890635 504.65052066 C-77.85151923 504.64596297 -82.96391302 504.64794722 -88.07649612 504.6672821 C-92.754725 504.68482196 -97.43257349 504.68399111 -102.1108059 504.66838481 C-103.80532808 504.66599472 -105.49987596 504.67040434 -107.19435868 504.68221346 C-109.49470623 504.6972549 -111.79369239 504.68771516 -114.09400558 504.67198658 C-116.01186564 504.67345179 -116.01186564 504.67345179 -117.96847034 504.67494661 C-123.19830125 503.9198457 -126.2495707 501.47090171 -129.72973633 497.61450195 C-132.23657032 493.99351953 -132.54172821 491.28728019 -132.53749084 486.99482727 C-132.53886551 485.92210571 -132.54024017 484.84938416 -132.54165649 483.74415588 C-132.53626358 481.97901894 -132.53626358 481.97901894 -132.53076172 480.17822266 C-132.53090775 478.93908112 -132.53105377 477.69993958 -132.53120422 476.42324829 C-132.53062647 473.02475023 -132.52560731 469.62631274 -132.51863027 466.2278254 C-132.51238374 462.67639611 -132.5117919 459.12496604 -132.51060486 455.5735321 C-132.50749538 448.84813203 -132.49928715 442.12274818 -132.48925537 435.39735526 C-132.47808234 427.74084353 -132.47258078 420.08433103 -132.46755993 412.42781317 C-132.45710423 396.67753336 -132.43951219 380.92726975 -132.41723633 365.17700195 C-133.05226074 365.1927124 -133.68728516 365.20842285 -134.34155273 365.22460938 C-137.24168863 365.28728785 -140.14168157 365.32609612 -143.04223633 365.36450195 C-144.54077148 365.40220703 -144.54077148 365.40220703 -146.06958008 365.44067383 C-152.40587988 365.5036172 -157.20431363 365.17623858 -162.06176758 360.6418457 C-165.86213342 355.67213652 -166.59200361 352.89905319 -166.65551758 346.75512695 C-166.66358932 346.01752136 -166.67166107 345.27991577 -166.67997742 344.5199585 C-166.69381684 342.95644479 -166.70453964 341.39290089 -166.71240234 339.8293457 C-166.72957149 337.4498475 -166.7734502 335.07175503 -166.81762695 332.69262695 C-166.82775816 331.17180381 -166.83627292 329.65096888 -166.84301758 328.13012695 C-166.86052567 327.42366028 -166.87803375 326.7171936 -166.89607239 325.98931885 C-166.87400437 320.90676172 -165.58003564 318.10163815 -162.41723633 314.17700195 C-157.84284217 310.04889015 -154.7429237 309.04844516 -148.65551758 309.0793457 C-147.53725586 309.08256836 -146.41899414 309.08579102 -145.2668457 309.08911133 C-143.51597656 309.10167969 -143.51597656 309.10167969 -141.72973633 309.11450195 C-140.55088867 309.11901367 -139.37204102 309.12352539 -138.1574707 309.12817383 C-135.24400844 309.13996922 -132.3306477 309.15642925 -129.41723633 309.17700195 C-129.43818359 308.31010742 -129.45913086 307.44321289 -129.48071289 306.55004883 C-129.54933194 303.29976405 -129.59925084 300.04985138 -129.63696289 296.79907227 C-129.65694263 295.39855722 -129.68413653 293.99812413 -129.71899414 292.59790039 C-129.91381458 284.56442236 -130.02326173 278.04800865 -125.41723633 271.17700195 C-122.64795865 268.40772427 -120.70017853 267.27024791 -116.96801758 266.0402832 C-113.68210229 264.65093071 -113.3892745 264.12862355 -111.44848633 260.77075195 C-110.91712727 259.41418629 -110.40756341 258.04893205 -109.91723633 256.67700195 C-109.33537146 255.21989087 -108.74677651 253.76544996 -108.15161133 252.3137207 C-107.8622168 251.60393066 -107.57282227 250.89414063 -107.2746582 250.1628418 C-102.1304926 238.2486496 -90.96011538 223.55714799 -79.41723633 217.17700195 C-76.27375604 216.70251436 -74.55851127 216.69151528 -71.66333008 217.9230957 C-68.07446171 218.32879387 -65.85616443 216.51353707 -62.79223633 214.73950195 C-56.63080776 211.17700195 -56.63080776 211.17700195 -54.41723633 211.17700195 C-54.33473633 209.91887695 -54.25223633 208.66075195 -54.16723633 207.36450195 C-53.98648798 204.60808963 -53.76617963 203.53101465 -51.80395508 201.5402832 C-48.77073647 199.80772462 -45.86749907 199.03016361 -42.47973633 198.17700195 C-41.82384521 198.00821533 -41.1679541 197.83942871 -40.4921875 197.66552734 C-35.06966102 196.28623296 -29.60801662 195.09614111 -24.12426758 193.9855957 C-21.30436066 193.14328584 -19.69028924 191.99645229 -17.41723633 190.17700195 C-16.75723633 190.17700195 -16.09723633 190.17700195 -15.41723633 190.17700195 C-12.12609299 182.41445232 -12.12609299 182.41445232 -12.41723633 174.17700195 C-14.76331959 171.44669662 -17.59244078 169.39172369 -20.41723633 167.17700195 C-29.10048046 159.14238569 -34.19928795 146.58359359 -36.41723633 135.17700195 C-36.41723633 134.51700195 -36.41723633 133.85700195 -36.41723633 133.17700195 C-37.24223633 133.13575195 -38.06723633 133.09450195 -38.91723633 133.05200195 C-44.25991454 131.7163324 -48.45298595 128.78849816 -51.78051758 124.36450195 C-55.65119778 117.83360882 -55.65614197 111.94087569 -55.72973633 104.55200195 C-55.77324219 103.13081055 -55.77324219 103.13081055 -55.81762695 101.6809082 C-55.86182826 96.7099608 -55.53760623 92.97122211 -53.40551758 88.45043945 C-50.39388872 81.702519 -51.06142137 74.64797203 -51.29223633 67.42700195 C-52.02882753 40.25639448 -52.02882753 40.25639448 -45.79223633 28.86450195 C-45.43814697 28.19427002 -45.08405762 27.52403809 -44.71923828 26.83349609 C-37.57324885 13.77074764 -26.5793718 5.67215075 -12.41723633 1.17700195 C-8.24423839 0.15390387 -4.29045084 0.03212116 0 0 Z " fill="#010101" transform="translate(166.417236328125,3.822998046875)"/>
<path d="M0 0 C114.84 0 229.68 0 348 0 C348 40.92 348 81.84 348 124 C233.16 124 118.32 124 0 124 C0 83.08 0 42.16 0 0 Z " fill="#C09F9F" transform="translate(82,369)"/>
<path d="M0 0 C0.76717295 0.00234117 1.5343459 0.00468233 2.32476652 0.00709444 C3.13604013 0.005641 3.94731375 0.00418756 4.78317142 0.00269008 C7.53691776 -0.00099691 10.29060969 0.0025289 13.04435575 0.00595194 C15.02441058 0.00480119 17.0044652 0.00321397 18.98451936 0.0012247 C24.45309057 -0.0029749 29.92164446 -0.00087511 35.39021575 0.00221092 C41.27711741 0.00446225 47.16401598 0.00098674 53.05091703 -0.00176901 C63.92604126 -0.00597043 74.80115949 -0.00558977 85.67628404 -0.00285754 C95.72134866 -0.00034611 105.76641124 0.00031665 115.81147611 -0.00088018 C116.4767087 -0.00095657 117.14194129 -0.00103295 117.82733244 -0.00111165 C120.5274446 -0.00142297 123.22755675 -0.00174137 125.9276689 -0.00207142 C151.278404 -0.00513329 176.62913555 -0.0023524 201.9798701 0.00302548 C224.52309573 0.0077714 247.06631571 0.00734679 269.6095413 0.00256449 C294.91267424 -0.0027853 320.21580404 -0.00491618 345.51893747 -0.00182325 C348.21424901 -0.00150251 350.90956056 -0.00118967 353.60487211 -0.00088018 C354.26857041 -0.0008011 354.93226872 -0.00072203 355.6160791 -0.00064055 C365.65704237 0.00049892 375.69800339 -0.00083708 385.73896635 -0.00335974 C397.15120869 -0.00615691 408.56344416 -0.00542124 419.97568572 -0.00007899 C425.80453738 0.00255915 431.63337754 0.00356119 437.46222913 0.00027186 C442.78900034 -0.00268881 448.1157493 -0.00110217 453.44251847 0.00424941 C455.37856334 0.00537459 457.31461005 0.00478022 459.25065374 0.00237362 C461.86432386 -0.00062826 464.47791581 0.00241192 467.0915817 0.00709444 C467.85875465 0.00475328 468.6259276 0.00241211 469.41634822 0 C474.59402377 0.01878524 474.59402377 0.01878524 475.70817411 1.13293558 C475.80763864 2.90152751 475.83897628 4.67405009 475.84098661 6.44543558 C475.84227567 7.52051371 475.84356473 8.59559183 475.84489286 9.70324808 C475.84102567 10.83504496 475.83715848 11.96684183 475.83317411 13.13293558 C475.8370413 14.26473246 475.84090848 15.39652933 475.84489286 16.56262308 C475.84295927 18.17524027 475.84295927 18.17524027 475.84098661 19.82043558 C475.83985868 20.81430277 475.83873075 21.80816996 475.83756864 22.83215433 C475.70817411 25.13293558 475.70817411 25.13293558 474.70817411 26.13293558 C472.16047114 26.2327076 469.63982985 26.26655316 467.0915817 26.25877672 C465.87467128 26.26095689 465.87467128 26.26095689 464.6331768 26.26318109 C461.87943045 26.26686808 459.12573853 26.26334227 456.37199247 26.25991923 C454.39193764 26.26106998 452.41188302 26.26265719 450.43182886 26.26464647 C444.96325765 26.26884607 439.49470375 26.26674628 434.02613246 26.26366025 C428.13923081 26.26140892 422.25233224 26.26488443 416.36543119 26.26764017 C405.49030696 26.2718416 394.61518872 26.27146093 383.74006417 26.26872871 C373.69499956 26.26621728 363.64993698 26.26555451 353.60487211 26.26675135 C352.93963952 26.26682773 352.27440693 26.26690412 351.58901577 26.26698282 C348.88890362 26.26729414 346.18879147 26.26761253 343.48867932 26.26794258 C318.13794422 26.27100446 292.78721267 26.26822357 267.43647812 26.26284569 C244.89325249 26.25809976 222.35003251 26.25852438 199.80680692 26.26330668 C174.50367398 26.26865646 149.20054418 26.27078735 123.89741075 26.26769441 C121.2020992 26.26737368 118.50678766 26.26706084 115.81147611 26.26675135 C115.1477778 26.26667227 114.4840795 26.26659319 113.80026912 26.26651172 C103.75930585 26.26537224 93.71834483 26.26670825 83.67738187 26.2692309 C72.26513952 26.27202807 60.85290406 26.2712924 49.4406625 26.26595016 C43.61181084 26.26331202 37.78297068 26.26230997 31.95411909 26.26559931 C26.62734787 26.26855997 21.30059891 26.26697334 15.97382975 26.26162176 C14.03778488 26.26049658 12.10173817 26.26109095 10.16569448 26.26349755 C7.55202436 26.26649943 4.93843241 26.26345925 2.32476652 26.25877672 C1.55759357 26.26111789 0.79042062 26.26345906 0 26.26587117 C-5.17767555 26.24708592 -5.17767555 26.24708592 -6.29182589 25.13293558 C-6.39129042 23.36434366 -6.42262806 21.59182108 -6.42463839 19.82043558 C-6.42592745 18.74535746 -6.42721652 17.67027933 -6.42854464 16.56262308 C-6.42274386 14.86492777 -6.42274386 14.86492777 -6.41682589 13.13293558 C-6.42069308 12.00113871 -6.42456027 10.86934183 -6.42854464 9.70324808 C-6.42725558 8.62816996 -6.42596652 7.55309183 -6.42463839 6.44543558 C-6.42351046 5.4515684 -6.42238253 4.45770121 -6.42122042 3.43371683 C-6.17541482 -0.93698497 -3.8086895 0.01381839 0 0 Z " fill="#B48B8B" transform="translate(21.291825890541077,327.86706441640854)"/>
<path d="M0 0 C0.99 0.73283203 0.99 0.73283203 2 1.48046875 C7.60011799 5.29788251 13.5967432 7.53623125 20 9.66796875 C20.73734375 9.91675781 21.4746875 10.16554687 22.234375 10.421875 C38.19550224 14.84521065 55.57514934 10.93748452 70 3.66796875 C70.87398437 2.98992187 71.74796875 2.311875 72.6484375 1.61328125 C76.40565988 -1.239624 79.53251917 -3.41826846 84.41699219 -3.24755859 C91.12716216 -2.31088467 97.56024252 -0.39096122 104 1.66796875 C104.77553223 1.90805664 105.55106445 2.14814453 106.35009766 2.39550781 C120.60910158 6.9078102 132.26745653 14.27917223 143 24.66796875 C143.90105469 25.44140625 143.90105469 25.44140625 144.8203125 26.23046875 C149.25160836 30.18771901 152.28692123 34.93047424 155.4375 39.91796875 C156.11232422 40.98349976 156.11232422 40.98349976 156.80078125 42.07055664 C157.21585938 42.74723389 157.6309375 43.42391113 158.05859375 44.12109375 C158.62018188 45.03616699 158.62018188 45.03616699 159.19311523 45.96972656 C160 47.66796875 160 47.66796875 160 50.66796875 C159.32607712 50.59813782 158.65215424 50.52830688 157.95780945 50.45635986 C151.50551474 49.82344333 145.12597049 49.49623969 138.64453125 49.46484375 C137.69922043 49.45914368 136.75390961 49.4534436 135.779953 49.4475708 C133.79431245 49.4381997 131.80865691 49.43161862 129.82299805 49.42773438 C126.83679135 49.41804755 123.85127985 49.38695518 120.86523438 49.35546875 C109.51558155 49.29301025 99.0578236 50.03001952 88 52.66796875 C86.68070217 52.97151985 85.36136595 53.27490411 84.04199219 53.578125 C68.23609369 57.32587044 51.82792541 64.57998857 39 74.66796875 C35.86307306 73.20094819 32.96336812 71.42779414 30.02758789 69.59667969 C6.81563495 55.21617041 -18.21782492 49.073331 -45.34790039 49.38671875 C-48.06345528 49.41797975 -50.77842292 49.42772563 -53.49414062 49.43359375 C-64.03002172 49.48087037 -74.49352467 49.86984413 -85 50.66796875 C-81.36976744 42.92578089 -77.54406575 36.19039905 -72 29.66796875 C-71.47148438 29.01828125 -70.94296875 28.36859375 -70.3984375 27.69921875 C-67.52722423 24.22431449 -64.58433821 21.43302965 -61 18.66796875 C-59.76176449 16.19149773 -60.19884152 15.12469264 -60.5625 12.41796875 C-60.6015625 9.98828125 -60.6015625 9.98828125 -60 7.66796875 C-57.0255719 4.92867331 -53.66313857 3.32674848 -50 1.66796875 C-49.26652344 1.32765625 -48.53304687 0.98734375 -47.77734375 0.63671875 C-46.2028904 -0.06160142 -44.60394355 -0.70440117 -43 -1.33203125 C-42.505 -0.67203125 -42.01 -0.01203125 -41.5 0.66796875 C-38.10187868 3.3864658 -35.14865648 3.02077079 -31 2.66796875 C-28.28585452 2.19725463 -25.65458655 1.524017 -23 0.79296875 C-19 -0.26171875 -19 -0.26171875 -17.01171875 -0.78417969 C-15.6326957 -1.15972917 -14.26028591 -1.56018982 -12.89453125 -1.98144531 C-7.32129451 -3.61002246 -4.72008792 -3.14365231 0 0 Z " fill="#DE7E83" transform="translate(156,215.33203125)"/>
<path d="M0 0 C4.43260067 0.91997372 5.97394894 3.09210246 9 6.3359375 C20.00776845 17.52964799 35.42813191 26.55009197 51.3125 27.6875 C56.13175492 27.71383952 60.95206391 27.62376136 65.76171875 27.31420898 C72.48759328 27.05132981 72.48759328 27.05132981 74.97924805 28.97290039 C76.296875 30.5859375 76.296875 30.5859375 78.3125 33.6875 C83.33092819 37.07202134 88.42406444 37.35002049 94.3125 37.6875 C94.33934312 40.50006281 94.35926188 43.31237241 94.375 46.125 C94.38337891 46.92744141 94.39175781 47.72988281 94.40039062 48.55664062 C94.4090143 50.60045221 94.3647815 52.64433902 94.3125 54.6875 C92.27723721 56.72276279 88.41975794 56.55541601 85.66015625 56.9921875 C82.96267477 57.51861044 82.96267477 57.51861044 81.3125 60.6875 C80.79096121 63.21209163 80.34207918 65.70730781 79.9375 68.25 C77.3945474 82.68109426 71.88245585 92.85328836 60.0625 101.8984375 C48.20211193 109.6144286 34.02106781 112.8578044 20.09375 110.03515625 C7.80821562 106.26867005 -4.05834885 99.60747346 -10.66015625 88.3125 C-15.05040184 79.99082321 -17.82630596 72.35154383 -18.1484375 62.921875 C-18.51501761 60.55516782 -18.51501761 60.55516782 -20.4453125 58.91796875 C-23.50896502 57.23669603 -26.03639845 57.27956596 -29.46875 57.19140625 C-32.69956413 56.45764741 -33.78936515 55.40217485 -35.6875 52.6875 C-35.9781124 49.79300051 -36.06936045 47.30800065 -35.9375 44.4375 C-35.91945313 43.69242188 -35.90140625 42.94734375 -35.8828125 42.1796875 C-35.83585649 40.34840299 -35.76411652 38.51778351 -35.6875 36.6875 C-34.50994141 37.120625 -34.50994141 37.120625 -33.30859375 37.5625 C-23.55312582 41.04187306 -23.55312582 41.04187306 -13.5 39.625 C-9.93592859 37.16975081 -8.10570689 34.7186558 -6.6875 30.6875 C-6.14042641 26.10534648 -6.12744481 21.54840695 -6.125 16.9375 C-6.11608553 14.50512395 -6.09455619 12.07275152 -6.05859375 9.640625 C-6.05786865 8.56973633 -6.05714355 7.49884766 -6.05639648 6.39550781 C-5.6875 3.6875 -5.6875 3.6875 -4.33227539 1.85839844 C-2.6875 0.6875 -2.6875 0.6875 0 0 Z " fill="#FDEAE2" transform="translate(162.6875,65.3125)"/>
<path d="M0 0 C0.65579544 -0.00817749 1.31159088 -0.01635498 1.98725891 -0.02478027 C4.14913032 -0.04951608 6.31093679 -0.06611614 8.47290039 -0.08056641 C9.21320559 -0.08589008 9.95351078 -0.09121376 10.71624947 -0.09669876 C14.63178596 -0.12337386 18.54729114 -0.1427701 22.46289062 -0.15722656 C25.69983053 -0.17058451 28.93614282 -0.19847781 32.17285156 -0.23925781 C36.08734147 -0.28856917 40.00126082 -0.3133445 43.91604805 -0.32045364 C45.40521037 -0.32716362 46.89436006 -0.34237941 48.38334465 -0.36634445 C50.46847768 -0.39800105 52.55140809 -0.39803461 54.63671875 -0.390625 C56.41398598 -0.40275528 56.41398598 -0.40275528 58.22715759 -0.41513062 C62.3126406 0.37196067 63.79130874 2.01468205 66.38305664 5.19287109 C67.13305664 7.47412109 67.13305664 7.47412109 67.38305664 9.69287109 C68.18083784 14.21613995 69.70270172 16.30116366 73.38305664 19.19287109 C76.06792724 20.98278482 77.65544205 21.22154324 80.94555664 21.56787109 C84.38305664 22.19287109 84.38305664 22.19287109 86.07739258 23.63549805 C88.09255533 27.58254924 87.77144411 31.36791683 87.71118164 35.73583984 C87.70930847 36.66004227 87.7074353 37.58424469 87.70550537 38.53645325 C87.69879252 40.48568338 87.68489324 42.43490022 87.66430664 44.3840332 C87.63306381 47.37968349 87.62332646 50.37480818 87.61743164 53.37060547 C87.60826518 55.26319006 87.59789054 57.15576927 87.58618164 59.04833984 C87.58193176 59.94932907 87.57768188 60.8503183 87.57330322 61.77861023 C87.50022597 68.07570177 87.50022597 68.07570177 86.38305664 69.19287109 C83.75805664 69.75537109 83.75805664 69.75537109 80.38305664 69.19287109 C78.41125367 67.29040625 76.75587486 65.23776193 75.03540039 63.10693359 C72.9726029 60.71740458 71.481554 59.81257057 68.38305664 59.19287109 C63.92206997 58.95685967 63.92206997 58.95685967 59.54711914 59.68896484 C48.04006927 62.36840425 35.28515243 59.3471617 25.38305664 53.19287109 C20.60658226 49.88478283 16.38498945 46.27625282 12.38305664 42.06787109 C6.9297446 36.53926677 1.75412872 32.97006824 -6.17944336 32.63037109 C-13.37714859 33.01237221 -18.22645255 35.37292862 -23.05444336 40.69287109 C-26.46858899 44.78612471 -26.7387209 48.60632497 -26.93334961 53.83349609 C-26.97524414 54.90341797 -27.01713867 55.97333984 -27.06030273 57.07568359 C-27.11927734 58.74244141 -27.11927734 58.74244141 -27.17944336 60.44287109 C-27.22262695 61.56951172 -27.26581055 62.69615234 -27.31030273 63.85693359 C-27.41626351 66.63546064 -27.51833478 69.414075 -27.61694336 72.19287109 C-29.07709627 71.91045469 -30.53504129 71.61660496 -31.99194336 71.31787109 C-32.80405273 71.15544922 -33.61616211 70.99302734 -34.45288086 70.82568359 C-36.61694336 70.19287109 -36.61694336 70.19287109 -38.61694336 68.19287109 C-38.82943883 65.51221717 -38.92090935 62.93773206 -38.91772461 60.25537109 C-38.92200974 59.46066406 -38.92629486 58.66595703 -38.93070984 57.84716797 C-38.93646187 56.15918937 -38.93694699 54.47118597 -38.93261719 52.78320312 C-38.92948948 50.23050963 -38.95279054 47.67901215 -38.97827148 45.12646484 C-39.03549738 31.08578091 -37.36957657 20.99892462 -27.61694336 10.19287109 C-19.70403639 3.41037941 -10.34131721 0.11232101 0 0 Z " fill="#736C76" transform="translate(169.616943359375,18.80712890625)"/>
<path d="M0 0 C1.3364003 0.00922989 1.3364003 0.00922989 2.69979858 0.01864624 C15.82000348 0.1110762 28.70470755 0.60897743 41.5625 3.4375 C42.83996094 3.71207031 44.11742187 3.98664063 45.43359375 4.26953125 C53.22243202 6.09743202 53.22243202 6.09743202 54.5625 7.4375 C54.5625 16.3475 54.5625 25.2575 54.5625 34.4375 C10.3425 34.4375 -33.8775 34.4375 -79.4375 34.4375 C-79.4375 24.4375 -79.4375 24.4375 -76.3125 21.3125 C-74.70910064 20.31844856 -73.08052794 19.36458519 -71.4375 18.4375 C-70.43074219 17.80070312 -69.42398438 17.16390625 -68.38671875 16.5078125 C-47.53320188 3.75998789 -24.16168502 -0.33846242 0 0 Z " fill="#E5E2E5" transform="translate(281.4375,278.5625)"/>
<path d="M0 0 C0.94289886 -0.00807175 1.88579773 -0.01614349 2.85726929 -0.02445984 C4.85599963 -0.03826257 6.85475317 -0.04900169 8.85351562 -0.05688477 C10.85847083 -0.06829848 12.8633983 -0.08857734 14.86816406 -0.1184082 C42.29517888 -0.52549242 65.9970392 5.57875683 89.2734375 20.23828125 C90.73330078 21.05232422 90.73330078 21.05232422 92.22265625 21.8828125 C94.2734375 24.23828125 94.2734375 24.23828125 94.2734375 34.23828125 C50.0534375 34.23828125 5.8334375 34.23828125 -39.7265625 34.23828125 C-39.7265625 24.99828125 -39.7265625 15.75828125 -39.7265625 6.23828125 C-35.8903125 5.43390625 -32.0540625 4.62953125 -28.1015625 3.80078125 C-26.90321777 3.5488501 -25.70487305 3.29691895 -24.47021484 3.03735352 C-23.51066895 2.83682373 -22.55112305 2.63629395 -21.5625 2.4296875 C-20.58845215 2.22545166 -19.6144043 2.02121582 -18.61083984 1.81079102 C-17.65902832 1.62186279 -16.7072168 1.43293457 -15.7265625 1.23828125 C-14.81680664 1.05362305 -13.90705078 0.86896484 -12.96972656 0.67871094 C-8.63892783 0.09057778 -4.36633154 0.03621535 0 0 Z " fill="#F5F2F5" transform="translate(92.7265625,278.76171875)"/>
<path d="M0 0 C1.4219165 0.32810669 1.4219165 0.32810669 2.87255859 0.6628418 C11.99484972 2.64795922 20.12468013 3.25387974 29.47265625 2.61914062 C36.19308659 2.37606123 36.19308659 2.37606123 38.66235352 4.28540039 C39.98046875 5.8984375 39.98046875 5.8984375 42 9 C47.01842819 12.38452134 52.11156444 12.66252049 58 13 C58.02684312 15.81256281 58.04676188 18.62487241 58.0625 21.4375 C58.07087891 22.23994141 58.07925781 23.04238281 58.08789062 23.86914062 C58.0965143 25.91295221 58.0522815 27.95683902 58 30 C55.96473721 32.03526279 52.10725794 31.86791601 49.34765625 32.3046875 C46.65017477 32.83111044 46.65017477 32.83111044 45 36 C44.47846121 38.52459163 44.02957918 41.01980781 43.625 43.5625 C41.0820474 57.99359426 35.56995585 68.16578836 23.75 77.2109375 C11.96779482 84.8760653 -2.35035836 88.25230807 -16.1953125 85.32421875 C-18.50602056 84.62968969 -20.7568029 83.88672262 -23 83 C-22.34 82.360625 -21.68 81.72125 -21 81.0625 C-19.99805636 80.04357427 -18.99834116 79.02245568 -18 78 C-17.38382813 77.3915625 -16.76765625 76.783125 -16.1328125 76.15625 C-4.90241912 64.44517831 -0.77709186 50.94082084 -0.5859375 35.05859375 C-0.56657135 34.05031021 -0.5472052 33.04202667 -0.5272522 32.00318909 C-0.46795567 28.81470938 -0.42127231 25.62619259 -0.375 22.4375 C-0.3367742 20.26235493 -0.29771986 18.08722425 -0.2578125 15.91210938 C-0.16229587 10.60820164 -0.07710564 5.30420565 0 0 Z " fill="#FCDBCC" transform="translate(199,90)"/>
<path d="M0 0 C2.27689257 -0.0066203 4.54954927 -0.06137152 6.82568359 -0.11791992 C8.2800959 -0.12671362 9.7345287 -0.13267344 11.18896484 -0.13549805 C13.15494629 -0.15398804 13.15494629 -0.15398804 15.16064453 -0.17285156 C18.51708984 0.5559082 18.51708984 0.5559082 20.86645508 3.30493164 C26.27279414 13.95288474 25.88706895 24.60032286 25.70458984 36.2434082 C25.68951007 37.92764098 25.67582751 39.61188687 25.66357422 41.29614258 C25.63084232 45.38306061 25.57924424 49.46933609 25.51708984 53.5559082 C18.63158538 50.88202199 13.64850087 46.8349499 8.57958984 41.4934082 C3.10101499 35.94022241 -2.07176608 32.33482114 -10.04541016 31.9934082 C-17.24311539 32.37540932 -22.09241935 34.73596573 -26.92041016 40.0559082 C-30.33455579 44.14916182 -30.60468769 47.96936208 -30.79931641 53.1965332 C-30.84121094 54.26645508 -30.88310547 55.33637695 -30.92626953 56.4387207 C-30.98524414 58.10547852 -30.98524414 58.10547852 -31.04541016 59.8059082 C-31.08859375 60.93254883 -31.13177734 62.05918945 -31.17626953 63.2199707 C-31.28223031 65.99849775 -31.38430158 68.77711211 -31.48291016 71.5559082 C-32.94306307 71.2734918 -34.40100809 70.97964207 -35.85791016 70.6809082 C-36.67001953 70.51848633 -37.48212891 70.35606445 -38.31884766 70.1887207 C-40.48291016 69.5559082 -40.48291016 69.5559082 -42.48291016 67.5559082 C-42.69540562 64.87525428 -42.78687615 62.30076917 -42.78369141 59.6184082 C-42.78797653 58.82370117 -42.79226166 58.02899414 -42.79667664 57.21020508 C-42.80242867 55.52222648 -42.80291379 53.83422308 -42.79858398 52.14624023 C-42.79545627 49.59354674 -42.81875734 47.04204926 -42.84423828 44.48950195 C-42.90146418 30.44881802 -41.23554337 20.36196173 -31.48291016 9.5559082 C-28.6564656 7.13324144 -25.81919087 5.20293286 -22.48291016 3.5559082 C-21.41556641 3.02094727 -20.34822266 2.48598633 -19.24853516 1.93481445 C-13.10211293 -0.29412364 -6.45803034 -0.00210725 0 0 Z " fill="#877E8A" transform="translate(173.48291015625,19.444091796875)"/>
<path d="M0 0 C0.84079102 0.18699463 1.68158203 0.37398926 2.54785156 0.56665039 C3.96251709 0.87276245 3.96251709 0.87276245 5.40576172 1.18505859 C6.40655762 1.42571045 7.40735352 1.6663623 8.43847656 1.91430664 C9.98414307 2.27238403 9.98414307 2.27238403 11.56103516 2.63769531 C30.29161531 7.13729349 45.67426989 14.41145356 59.68847656 27.97680664 C60.28917969 28.49243164 60.88988281 29.00805664 61.50878906 29.53930664 C65.94008493 33.4965569 68.9753978 38.23931213 72.12597656 43.22680664 C72.57585937 43.93716064 73.02574219 44.64751465 73.48925781 45.37939453 C73.90433594 46.05607178 74.31941406 46.73274902 74.74707031 47.42993164 C75.30865845 48.34500488 75.30865845 48.34500488 75.8815918 49.27856445 C76.68847656 50.97680664 76.68847656 50.97680664 76.68847656 53.97680664 C76.01781662 53.9025798 75.34715668 53.82835297 74.65617371 53.75187683 C68.06496416 53.07919605 61.66685145 52.95316176 55.05175781 53.15258789 C52.05854455 53.19114778 49.06537041 53.21747729 46.07202148 53.24316406 C44.01880775 53.27401368 41.96581659 53.32819165 39.91381836 53.40527344 C23.22315777 53.99723518 23.22315777 53.99723518 19.03283691 50.65707397 C15.94206014 46.87120583 14.39725075 42.5067028 12.68847656 37.97680664 C11.32405107 35.69721115 11.32405107 35.69721115 9.85253906 33.86352539 C9.43319092 33.32260254 9.01384277 32.78167969 8.58178711 32.22436523 C8.16324463 31.7095459 7.74470215 31.19472656 7.31347656 30.66430664 C6.62475464 29.80313232 6.62475464 29.80313232 5.92211914 28.92456055 C0.13565255 21.85628802 -6.50097035 15.73933901 -14.31152344 10.97680664 C-15.30152344 10.31680664 -16.29152344 9.65680664 -17.31152344 8.97680664 C-16.56386719 8.57848633 -15.81621094 8.18016602 -15.04589844 7.76977539 C-14.06105469 7.2399707 -13.07621094 6.71016602 -12.06152344 6.16430664 C-11.08699219 5.64223633 -10.11246094 5.12016602 -9.10839844 4.58227539 C-6.35664601 3.12445304 -6.35664601 3.12445304 -4.44042969 1.33959961 C-2.31152344 -0.02319336 -2.31152344 -0.02319336 0 0 Z " fill="#D8616C" transform="translate(239.3115234375,212.023193359375)"/>
<path d="M0 0 C11.98349292 7.34702244 19.71019948 18.40409873 23 32 C24.27954316 47.37113537 20.63568467 57.63197459 11.875 70 C9.98429812 72.01674867 8.47166432 72.85134272 6 74 C1.54227721 67.07430425 -2.42203413 59.90978972 -6.375 52.6875 C-7.79590828 50.09972891 -9.21837901 47.51281731 -10.640625 44.92578125 C-11.00096832 44.26976929 -11.36131165 43.61375732 -11.73257446 42.93786621 C-16.1087676 34.97413503 -20.52981778 27.03543088 -24.95068359 19.09643555 C-26.08758551 17.0531622 -27.22291791 15.00901451 -28.35644531 12.96386719 C-29.48674068 10.92557459 -30.62177681 8.88990596 -31.76074219 6.85644531 C-32.31149414 5.86483398 -32.86224609 4.87322266 -33.4296875 3.8515625 C-33.92452637 2.96549316 -34.41936523 2.07942383 -34.92919922 1.16650391 C-36 -1 -36 -1 -36 -3 C-24.01534523 -7.60521457 -11.2669274 -5.57712906 0 0 Z " fill="#736C76" transform="translate(374,87)"/>
<path d="M0 0 C5.94 0 11.88 0 18 0 C18.02578125 1.40894531 18.0515625 2.81789063 18.078125 4.26953125 C18.13439975 6.11721875 18.19174722 7.9648738 18.25 9.8125 C18.26417969 10.74126953 18.27835937 11.67003906 18.29296875 12.62695312 C18.32519531 13.51962891 18.35742188 14.41230469 18.390625 15.33203125 C18.41157227 16.15421143 18.43251953 16.9763916 18.45410156 17.82348633 C18.82943876 20.1541081 18.82943876 20.1541081 20.85058594 21.72924805 C23.05888513 23.13662342 23.05888513 23.13662342 26 24 C26 30.27 26 36.54 26 43 C24.02 43.99 22.04 44.98 20 46 C18.52462597 48.95074805 18.82984249 51.95109601 18.81054688 55.18774414 C18.79810692 56.29767982 18.79810692 56.29767982 18.78541565 57.43003845 C18.76800347 59.03859876 18.75283985 60.6471846 18.73963928 62.25578499 C18.71864672 64.79766156 18.69162264 67.33940939 18.66296387 69.88121033 C18.59305922 76.193142 18.53365569 82.50516492 18.47393799 88.81719971 C18.42309199 94.15057776 18.3682979 99.4838861 18.30812073 104.81716728 C18.28145563 107.32829114 18.26069754 109.83942117 18.2401123 112.3506012 C18.22351685 113.88095411 18.20664568 115.41130407 18.18945312 116.94165039 C18.18526871 117.64556915 18.18108429 118.34948792 18.17677307 119.07473755 C18.11384623 123.88615377 18.11384623 123.88615377 17 125 C11.39 125 5.78 125 0 125 C0 83.75 0 42.5 0 0 Z " fill="#AF8787" transform="translate(445,368)"/>
<path d="M0 0 C45.7476035 -0.01710976 91.4952073 -0.03303148 137.24281311 -0.04234314 C137.91934907 -0.0424812 138.59588504 -0.04261925 139.29292209 -0.04276149 C153.99408949 -0.04575405 168.69525692 -0.04852428 183.39642441 -0.05106533 C190.6053474 -0.05231272 197.81427038 -0.05360927 205.02319336 -0.05493164 C205.74058709 -0.0550624 206.45798083 -0.05519316 207.19711376 -0.05532788 C230.47099381 -0.05959306 253.74487144 -0.06710722 277.01875001 -0.07629722 C300.92563758 -0.08572008 324.83252381 -0.09188318 348.7394132 -0.09391499 C352.11219529 -0.09420317 355.48497739 -0.0945288 358.85775948 -0.09487724 C359.52160428 -0.09494467 360.18544909 -0.09501209 360.86941041 -0.09508156 C370.91301768 -0.09619215 380.95662124 -0.10018942 391.00022697 -0.10573006 C402.41615203 -0.11200506 413.83207161 -0.11497605 425.24799841 -0.11350138 C431.0788693 -0.11285767 436.90972802 -0.11387918 442.74059677 -0.11920547 C448.06925673 -0.12403779 453.39789622 -0.12433977 458.72655708 -0.12089889 C460.66330542 -0.12047303 462.60005498 -0.12177018 464.53680085 -0.12488318 C467.15143106 -0.12884437 469.76598546 -0.12676515 472.38061428 -0.12304783 C473.14807308 -0.12567484 473.91553188 -0.12830186 474.706247 -0.13100848 C479.8858542 -0.1141458 479.8858542 -0.1141458 481 1 C481.09946453 2.76859193 481.13080217 4.54111451 481.1328125 6.3125 C481.13410156 7.38757813 481.13539063 8.46265625 481.13671875 9.5703125 C481.13285156 10.70210938 481.12898438 11.83390625 481.125 13 C481.12886719 14.13179688 481.13273437 15.26359375 481.13671875 16.4296875 C481.13478516 18.04230469 481.13478516 18.04230469 481.1328125 19.6875 C481.13168457 20.68136719 481.13055664 21.67523438 481.12939453 22.69921875 C481 25 481 25 480 26 C477.45134215 26.09885765 474.92977764 26.13177362 472.38061428 26.12304783 C471.56904107 26.12420167 470.75746785 26.12535552 469.92130151 26.12654433 C467.16654414 26.12921845 464.41184372 26.12468233 461.65708923 26.12025452 C459.67632186 26.12069006 457.69555455 26.12156464 455.71478754 26.12284368 C450.24428418 26.12509204 444.7738002 26.12106274 439.30329931 26.11606562 C433.41437298 26.11176616 427.52544784 26.11320718 421.63652039 26.1139679 C410.75791861 26.11452775 399.87932394 26.11062829 389.00072396 26.10462701 C378.95306891 26.09913117 368.90541597 26.09589773 358.85775948 26.09487724 C358.19238176 26.0948085 357.52700405 26.09473976 356.84146337 26.09466894 C353.46255077 26.09433062 350.08363817 26.09402923 346.70472557 26.09374207 C322.7519605 26.09163987 298.79919875 26.08489752 274.84643555 26.07543945 C251.57202166 26.06625982 228.29760869 26.05917386 205.02319336 26.05493164 C204.30617805 26.05480011 203.58916274 26.05466859 202.85041969 26.05453308 C195.65006735 26.05321459 188.44971501 26.05193877 181.24936266 26.05069422 C166.58051276 26.04815779 151.91166292 26.04533653 137.24281311 26.04234314 C136.56831572 26.04220585 135.89381832 26.04206856 135.19888162 26.04192711 C90.13258635 26.03272147 45.06629299 26.01685495 0 26 C0 25.67 0 25.34 0 25 C139.59 25 279.18 25 423 25 C423 17.08 423 9.16 423 1 C283.41 1 143.82 1 0 1 C0 0.67 0 0.34 0 0 Z " fill="#916E6E" transform="translate(16,328)"/>
<path d="M0 0 C5.94 0 11.88 0 18 0 C18 41.25 18 82.5 18 125 C12.39 125 6.78 125 1 125 C0 124 0 124 -0.12304783 121.94039822 C-0.12212604 121.02690137 -0.12120424 120.11340452 -0.12025452 119.17222595 C-0.12162918 118.12749619 -0.12300385 117.08276642 -0.12442017 116.00637817 C-0.12082489 114.85048187 -0.11722961 113.69458557 -0.11352539 112.50366211 C-0.11367142 111.29407333 -0.11381744 110.08448456 -0.1139679 108.83824158 C-0.11338893 105.51193649 -0.10835973 102.18569281 -0.10139394 98.8593986 C-0.09515978 95.38670071 -0.09455655 91.91400207 -0.09336853 88.44129944 C-0.0902554 81.86103807 -0.08204225 75.28079324 -0.07201904 68.70053917 C-0.06085734 61.21093888 -0.05534731 53.72133782 -0.05032361 46.2317313 C-0.03985962 30.82114435 -0.02206006 15.41057495 0 0 Z " fill="#AE8686" transform="translate(49,368)"/>
<path d="M0 0 C10 2 10 2 12.36328125 2.55078125 C22.11640712 4.21242492 31.86223158 3.2509619 41.328125 0.65625 C44 0 44 0 48 0 C48.18175781 0.67546875 48.36351562 1.3509375 48.55078125 2.046875 C48.80214844 2.93890625 49.05351562 3.8309375 49.3125 4.75 C49.55613281 5.63171875 49.79976562 6.5134375 50.05078125 7.421875 C50.87935224 10.0521905 50.87935224 10.0521905 52.60546875 12.140625 C54 14 54 14 54 17 C39.4288008 24.85776711 25.62465973 29.05422464 9.125 24.3125 C3.72994449 22.45190607 -1.17659316 20.04111439 -6 17 C-5.29412215 13.83090255 -4.23148962 10.93925594 -3 7.9375 C-1.92152008 5.30077518 -0.90129759 2.70389276 0 0 Z " fill="#FAE7DF" transform="translate(170,187)"/>
<path d="M0 0 C1.02141083 -0.0127597 2.04282166 -0.02551941 3.09518433 -0.03866577 C4.74213791 -0.04200424 4.74213791 -0.04200424 6.42236328 -0.04541016 C7.55666779 -0.05206696 8.69097229 -0.05872375 9.85964966 -0.06558228 C12.25863016 -0.07570525 14.65763879 -0.08039941 17.05664062 -0.08007812 C20.72199043 -0.08444799 24.38613301 -0.12076431 28.05126953 -0.15869141 C30.38329667 -0.16456028 32.71532952 -0.1685292 35.04736328 -0.17041016 C36.14128387 -0.18478119 37.23520447 -0.19915222 38.36227417 -0.21395874 C44.50233841 -0.17719621 48.23976212 0.1039085 52.86767578 4.29052734 C54.86767578 7.29052734 54.86767578 7.29052734 54.86767578 14.29052734 C32.42767578 14.29052734 9.98767578 14.29052734 -13.13232422 14.29052734 C-13.13232422 8.11319069 -12.84789716 6.83178316 -9.13232422 2.29052734 C-6.04627509 0.33409236 -3.6208472 0.0307806 0 0 Z " fill="#655D65" transform="translate(415.13232421875,298.70947265625)"/>
<path d="M0 0 C5.95430323 2.38172129 8.71844972 7.46834196 11.69921875 12.89453125 C13.56371344 17.34580235 13.72680509 20.50311175 12 25 C8.22525162 31.74062211 0.85867944 34.94164426 -6 38 C-6.99 38 -7.98 38 -9 38 C-9.20753906 37.20078125 -9.41507812 36.4015625 -9.62890625 35.578125 C-12.05024964 26.94639042 -15.21887999 17.77022907 -21.71484375 11.2890625 C-23 10 -23 10 -23 8 C-7.37369247 -1.958159 -7.37369247 -1.958159 0 0 Z " fill="#645C64" transform="translate(419,77)"/>
<path d="M0 0 C3.95403662 0.26360244 5.65370756 0.86143155 8.75 3.25 C11.23534519 6.97801778 11.01369165 8.72331786 10.41796875 13.01953125 C9.22766709 16.99416426 7.30660184 18.16972345 3.75 20.25 C-0.40150411 21.11489669 -1.88901152 20.46114421 -5.5625 18.3125 C-8.66133695 15.43500855 -9.33838092 12.55216507 -9.56640625 8.40625 C-9.04770832 4.87141967 -6.98839975 3.33639981 -4.25 1.25 C-3.25 0.25 -3.25 0.25 0 0 Z " fill="#635B63" transform="translate(486.25,168.75)"/>
</svg>
